<?xml version="1.0" standalone="no"?>
<!DOCTYPE svg PUBLIC "-//W3C//DTD SVG 20010904//EN"
 "http://www.w3.org/TR/2001/REC-SVG-20010904/DTD/svg10.dtd">
<svg version="1.0" xmlns="http://www.w3.org/2000/svg"
 width="746.000000pt" height="746.000000pt" viewBox="0 0 746.000000 746.000000"
 preserveAspectRatio="xMidYMid meet">
<metadata>
Created by potrace 1.14, written by Peter Selinger 2001-2017
</metadata>
<g transform="translate(0.000000,746.000000) scale(0.100000,-0.100000)"
fill="#000000" stroke="none">
<path d="M3340 7074 c-75 -64 -99 -162 -139 -584 -12 -129 -17 -239 -14 -325
4 -84 1 -145 -6 -173 l-12 -44 -29 46 c-57 90 -155 133 -241 107 -26 -8 -44
-21 -51 -37 -10 -21 -7 -30 20 -68 18 -24 32 -47 32 -50 0 -3 -430 -6 -955 -6
l-955 0 0 -1285 c0 -898 -3 -1285 -11 -1285 -5 0 -8 -4 -5 -8 3 -5 -2 -18 -10
-30 -14 -20 -24 -22 -120 -22 -63 0 -104 -4 -104 -10 0 -6 40 -10 99 -10 84 0
102 3 125 21 l26 20 0 -72 0 -73 -20 22 c-17 18 -32 22 -85 22 -36 0 -65 -4
-65 -8 0 -4 29 -8 65 -8 36 -1 70 -5 75 -10 15 -15 20 -67 10 -100 -13 -38
-45 -54 -113 -54 -36 0 -47 -3 -37 -10 20 -12 101 -5 128 11 11 7 25 22 31 34
7 15 10 -3 10 -72 l1 -91 -29 29 c-37 36 -79 38 -118 5 -25 -22 -28 -30 -28
-90 l0 -66 -38 0 c-21 0 -36 -4 -33 -8 6 -10 172 -8 202 1 12 4 26 17 32 30 9
17 11 -4 9 -93 l-2 -115 -87 2 c-49 1 -88 -3 -88 -8 0 -5 41 -9 90 -9 l90 0 0
-162 c-1 -116 -4 -158 -11 -145 -15 26 -122 24 -149 -3 -44 -44 -18 -148 42
-169 42 -15 95 9 111 49 3 8 6 -11 6 -42 l1 -58 -92 0 c-58 0 -87 -4 -78 -9 8
-5 41 -8 72 -7 31 2 62 0 68 -4 14 -9 19 -77 8 -111 -11 -33 -46 -49 -103 -49
-25 0 -45 -4 -45 -10 0 -11 92 -7 122 5 9 3 23 21 32 38 15 32 16 31 15 -48 0
-59 -2 -75 -10 -62 -8 13 -23 17 -69 17 -83 0 -107 -24 -100 -100 5 -55 34
-87 89 -96 21 -4 68 26 80 50 7 15 10 -87 10 -331 1 -353 1 -353 -19 -333 -16
16 -33 20 -87 20 -82 0 -75 -14 9 -16 71 -1 87 -15 83 -72 -4 -70 -33 -92
-121 -92 -19 0 -34 -4 -34 -8 0 -9 87 -9 115 1 11 4 28 19 37 34 l17 28 1 -42
c0 -23 -5 -45 -10 -48 -6 -4 -8 -10 -5 -15 3 -4 -3 -17 -13 -29 -15 -18 -29
-21 -115 -22 -53 -1 -100 -5 -102 -10 -3 -4 41 -7 99 -6 86 2 108 6 125 21
l21 19 0 -71 0 -72 -20 20 c-16 16 -33 20 -93 20 -43 0 -66 -4 -57 -9 8 -4 35
-7 60 -6 80 3 104 -18 95 -85 -7 -54 -44 -80 -113 -80 -34 0 -52 -4 -44 -9 40
-25 153 8 165 49 3 8 5 -24 6 -72 l1 -86 -29 29 c-72 71 -170 -3 -151 -113 l7
-38 -45 0 c-25 0 -42 -3 -38 -7 11 -11 188 -11 212 0 12 5 27 19 32 31 10 20
11 20 11 -6 l1 -28 2845 0 2845 0 2 507 c2 280 2 1560 0 2846 l-2 2337 -1329
0 -1328 0 5 74 c2 41 1 87 -2 102 -4 16 -59 78 -135 153 -71 69 -141 146 -156
170 -17 28 -40 49 -64 59 -48 21 -74 75 -91 190 -6 46 -16 72 -33 91 -23 25
-24 31 -19 124 5 112 -4 142 -51 175 -46 30 -97 29 -137 -4z m-2386 -4134 c29
-28 27 -97 -3 -121 -27 -22 -109 -27 -116 -6 -29 83 15 167 80 150 11 -3 28
-13 39 -23z m11 -651 c11 -11 13 -94 2 -114 -42 -81 -141 -46 -141 50 0 32 6
49 18 58 17 13 110 17 121 6z m0 -480 c14 -15 12 -96 -3 -121 -27 -47 -112
-46 -126 1 -20 65 -11 117 21 123 27 5 101 3 108 -3z m-11 -1409 c12 -11 19
-33 20 -60 1 -56 -27 -80 -95 -80 -53 0 -49 -5 -54 70 -1 31 20 76 42 88 23
13 64 5 87 -18z"/>
<path d="M844 2527 c-34 -30 -46 -112 -20 -149 9 -12 19 -22 21 -20 3 1 6 2 8
1 14 -6 119 -4 123 3 3 4 -22 8 -55 8 -75 0 -100 19 -97 73 3 43 30 87 54 88
9 1 33 2 54 3 60 2 56 16 -5 16 -44 0 -62 -5 -83 -23z"/>
<path d="M867 1576 c-34 -18 -58 -69 -59 -130 -2 -61 15 -102 46 -112 31 -10
126 -12 126 -2 0 4 -26 8 -58 8 -69 0 -92 18 -97 74 l-3 35 74 -2 c45 -1 75 2
74 8 0 6 -31 9 -73 9 l-73 -2 4 29 c2 16 15 40 28 54 19 20 32 25 74 25 27 0
50 3 50 8 0 11 -88 10 -113 -2z"/>
<path d="M857 1269 c-25 -15 -49 -67 -49 -107 0 -54 28 -75 106 -77 36 -1 66
2 66 7 0 4 -26 8 -58 8 -32 0 -66 6 -75 13 -42 30 -22 126 29 144 16 5 46 9
67 8 20 -1 37 2 37 7 0 12 -102 9 -123 -3z"/>
</g>
</svg>
